<svg xmlns="http://www.w3.org/2000/svg" viewBox="0 0 26.998 21.002">
  <defs>
    <style>
      .cls-1 {
        fill: #4f699d;
      }
    </style>
  </defs>
  <path id="cart" class="cls-1" d="M1674.942,34.724l-3.137,9.819a1.661,1.661,0,0,1-1.6,1.149h-12.124a1.74,1.74,0,0,1-1.615-1.068l-4.619-12.3h-2.679a1.163,1.163,0,1,1,0-2.326h3.489a1.212,1.212,0,0,1,1.1.781l4.79,12.59h11.161l2.508-7.848h-13.834a1.163,1.163,0,1,1,0-2.326h15.433a1.2,1.2,0,0,1,.946.493A1.158,1.158,0,0,1,1674.942,34.724Zm-16.26,12.52a1.938,1.938,0,0,0-1.35.549,1.86,1.86,0,0,0,0,2.656,1.931,1.931,0,0,0,2.7,0,1.853,1.853,0,0,0,0-2.656A1.932,1.932,0,0,0,1658.683,47.245Zm10.532,0a1.934,1.934,0,0,0-1.35.549,1.86,1.86,0,0,0,0,2.656,1.932,1.932,0,0,0,2.7,0,1.853,1.853,0,0,0,0-2.656A1.931,1.931,0,0,0,1669.215,47.245Z" transform="translate(-1647.998 -29.995)"/>
</svg>
