<svg xmlns="http://www.w3.org/2000/svg" viewBox="0 0 17 18">
  <defs>
    <style>
      .cls-1 {
        fill: #ee4256;
      }
    </style>
  </defs>
  <path id="ic_trash_red" class="cls-1" d="M1716.9,328.813l-.6,11.438a.791.791,0,0,1-.79.749h-10.022a.791.791,0,0,1-.79-.749l-.6-11.437a.791.791,0,1,1,1.579-.083l.564,10.688h8.522l.564-10.688a.791.791,0,1,1,1.579.083Zm2.1-2.648a.791.791,0,0,1-.791.791h-15.419a.791.791,0,0,1,0-1.582h4.349v-1.78a.569.569,0,0,1,.637-.594h5.447a.569.569,0,0,1,.637.594v1.78h4.349A.791.791,0,0,1,1719,326.165Zm-10.477-.791h3.953v-.989h-3.953Zm.332,12.857h.017a.724.724,0,0,0,.675-.75l-.2-8.552a.7.7,0,0,0-.708-.686.687.687,0,0,0-.675.7l.2,8.57A.727.727,0,0,0,1708.855,338.231Zm3.26,0a.708.708,0,0,0,.691-.695l.2-8.54a.7.7,0,0,0-.676-.713.689.689,0,0,0-.708.673l-.2,8.549a.7.7,0,0,0,.675.726Z" transform="translate(-1702 -323)"/>
</svg>
