<svg xmlns="http://www.w3.org/2000/svg" viewBox="0 0 26 26" height="22px" width="22px">
  <defs>
    <style>
      .cls-1 {
        fill: #fff;
      }

      .cls-2 {
        fill: #6772e5;
      }
    </style>
  </defs>
  <g id="ic_trash" transform="translate(-834 -735)">
    <circle id="Ellipse_4" data-name="Ellipse 4" class="cls-1" cx="13" cy="13" r="13" transform="translate(834 735)"/>
    <path id="trash" class="cls-2" d="M851.52,745.2l-.426,8.26a.564.564,0,0,1-.557.541h-7.074a.564.564,0,0,1-.557-.541l-.426-8.26a.558.558,0,1,1,1.115-.06l.4,7.719h6.015l.4-7.719a.558.558,0,1,1,1.115.06ZM853,743.286a.565.565,0,0,1-.558.571H841.558a.572.572,0,0,1,0-1.143h3.07v-1.286a.406.406,0,0,1,.45-.429h3.845a.406.406,0,0,1,.45.429v1.286h3.07A.565.565,0,0,1,853,743.286Zm-7.4-.571H848.4V742H845.6Zm.234,9.286h.012a.518.518,0,0,0,.477-.542l-.142-6.176a.5.5,0,0,0-.5-.5.492.492,0,0,0-.477.508l.142,6.189A.519.519,0,0,0,845.839,752Zm2.3,0a.506.506,0,0,0,.488-.5l.142-6.168a.5.5,0,0,0-.477-.515.491.491,0,0,0-.5.486l-.142,6.174a.5.5,0,0,0,.477.524Z"/>
  </g>
</svg>
