<svg xmlns="http://www.w3.org/2000/svg" viewBox="0 0 22.75 16.401">
  <defs>
    <style>
      .cls-1 {
        fill: #fff;
      }
    </style>
  </defs>
  <path id="menu_user-group" class="cls-1" d="M192.6,508.93a5.1,5.1,0,1,0-5.288-5.1A5.2,5.2,0,0,0,192.6,508.93Zm0-8.265a3.17,3.17,0,1,1-3.288,3.168A3.233,3.233,0,0,1,192.6,500.665Zm2.406,8.741a1.034,1.034,0,0,0-.821.095l-1.585.927-1.585-.927a1.032,1.032,0,0,0-.821-.095c-1.513.463-6.448,2.174-6.448,4.766a.983.983,0,0,0,1,.965h15.708a.983.983,0,0,0,1-.965C201.458,511.58,196.523,509.869,195.01,509.406Zm-8.448,3.8a15.153,15.153,0,0,1,3.815-1.826l1.709,1a1.033,1.033,0,0,0,1.037,0l1.709-1a15.153,15.153,0,0,1,3.815,1.826Zm19.938-.714a.729.729,0,0,1-.75.714h-3.342a.724.724,0,1,1,0-1.447h2.226a5.1,5.1,0,0,0-1.717-1.258.7.7,0,0,1-.3-.973.764.764,0,0,1,1.018-.286C204.708,509.81,206.5,510.976,206.5,512.493Zm-4.206-6.385a1.952,1.952,0,0,0-1.985-1.913,2.04,2.04,0,0,0-.773.15.76.76,0,0,1-.983-.385.714.714,0,0,1,.4-.948,3.574,3.574,0,0,1,1.357-.265,3.363,3.363,0,1,1,0,6.721,3.546,3.546,0,0,1-2.611-1.135.706.706,0,0,1,.064-1.021.769.769,0,0,1,1.059.062,2.022,2.022,0,0,0,1.488.647A1.952,1.952,0,0,0,202.293,506.108Z" transform="translate(-183.75 -498.736)"/>
</svg>
