<svg xmlns="http://www.w3.org/2000/svg" viewBox="0 0 21 18.993">
  <defs>
    <style>
      .cls-1 {
        fill: #fff;
      }
    </style>
  </defs>
  <path id="menu_user" class="cls-1" d="M195.5,462.949a5.976,5.976,0,1,0-6.146-5.974A6.069,6.069,0,0,0,195.5,462.949Zm0-10.18a4.208,4.208,0,1,1-4.32,4.206A4.269,4.269,0,0,1,195.5,452.769Zm2.845,10.764a.936.936,0,0,0-.869.169l-1.976,1.626-1.976-1.626a.936.936,0,0,0-.869-.169c-1.278.395-7.655,2.518-7.655,5.578a.9.9,0,0,0,.913.883h19.174a.9.9,0,0,0,.913-.883C206,466.051,199.623,463.928,198.345,463.534Zm-11.04,4.695a16.1,16.1,0,0,1,5.428-2.858l2.175,1.79a.936.936,0,0,0,1.183,0l2.175-1.79a16.1,16.1,0,0,1,5.428,2.858Z" transform="translate(-185 -451.003)"/>
</svg>
