<svg xmlns="http://www.w3.org/2000/svg" viewBox="0 0 23 13.36">
  <defs>
    <style>
      .cls-1 {
        fill: #4f699d;
      }
    </style>
  </defs>
  <path id="menu_meter" class="cls-1" d="M201.2,360.555,196.36,370.7a2.31,2.31,0,0,1-2,1.661,1.781,1.781,0,0,1-1.574-.885,1.989,1.989,0,0,1,.1-2.062h0l6.339-9.9a1.144,1.144,0,0,1,1.49-.384A1.078,1.078,0,0,1,201.2,360.555Zm1.7,2.952a1.021,1.021,0,0,0-1.413-.057.952.952,0,0,0-.059,1.373A9.344,9.344,0,0,1,204,371.269a1,1,0,0,0,2,0A11.253,11.253,0,0,0,202.9,363.507Zm-7.595-1.626a.972.972,0,1,0,.171-1.936c-.323-.027-.651-.04-.976-.04A11.446,11.446,0,0,0,183,371.269a1,1,0,0,0,2,0,9.471,9.471,0,0,1,9.5-9.421C194.768,361.848,195.039,361.859,195.305,361.881Z" transform="translate(-183 -359.002)"/>
</svg>
