<svg xmlns="http://www.w3.org/2000/svg" viewBox="0 0 23.062 20.69">
  <defs>
    <style>
      .cls-1 {
        fill: #4f699d;
      }
    </style>
  </defs>
  <path id="menu_broadcast" class="cls-1" d="M206.779,554.706a2.586,2.586,0,0,0-1.348-1.624,4.277,4.277,0,0,0-2.557-.259l-1.47-4.948a.986.986,0,0,0-.739-.674,1.03,1.03,0,0,0-.972.3c-3.59,3.841-5.066,4.776-9.015,6.445l-3.107.86a4.928,4.928,0,0,0-1.062,9.165,5.283,5.283,0,0,0,2.483.62,5.35,5.35,0,0,0,1.219-.144l.335,1.13a3.424,3.424,0,0,0,.983,1.557l.522.474a1.033,1.033,0,0,0,1.418-.037.935.935,0,0,0-.038-1.36l-.522-.475a1.512,1.512,0,0,1-.433-.687l-.335-1.128,1.445-.4c4.16-.6,6.034-.554,11.122.842a1.045,1.045,0,0,0,.275.037,1.024,1.024,0,0,0,.709-.282.935.935,0,0,0,.256-.944l-1.467-4.941a4.017,4.017,0,0,0,2.038-1.463A2.435,2.435,0,0,0,206.779,554.706Zm-19.3,7.576a3.031,3.031,0,0,1,.647-5.632l2.257-.624,1.037,3.492.712,2.4-2.263.626A3.229,3.229,0,0,1,187.48,562.282Zm10.212-1.057a27.338,27.338,0,0,0-3.6.276l-1.463-4.925-.36-1.211a20.785,20.785,0,0,0,7.693-5.309l3.564,12A23.488,23.488,0,0,0,197.692,561.225Zm7.116-5.467a1.936,1.936,0,0,1-.881.609l-.5-1.675a2.073,2.073,0,0,1,1.079.1.639.639,0,0,1,.342.443A.577.577,0,0,1,204.808,555.758Zm-6.348-1.592a.821.821,0,0,1-.2,1.176,18.692,18.692,0,0,1-2.019,1.191.9.9,0,0,1-.4.1.883.883,0,0,1-.779-.453.826.826,0,0,1,.372-1.136,17.2,17.2,0,0,0,1.8-1.061A.9.9,0,0,1,198.46,554.166Z" transform="translate(-183.833 -547.177)"/>
</svg>
