<svg xmlns="http://www.w3.org/2000/svg" viewBox="0 0 37 37">
  <defs>
    <style>
      .cls-1 {
        fill: #6772e5;
      }

      .cls-2 {
        fill: #fff;
      }
    </style>
  </defs>
  <g id="ic_close_dark" transform="translate(-1296 -306)">
    <path id="Ellipse_3" data-name="Ellipse 3" class="cls-1" d="M1327.581,311.418a18.5,18.5,0,1,1-26.163,0A18.5,18.5,0,0,1,1327.581,311.418Z"/>
    <path id="plus" class="cls-2" d="M1319.679,329.878a1.267,1.267,0,0,1-1.793,0l-3.586-3.586-3.386,3.386a1.268,1.268,0,1,1-1.793-1.793l3.386-3.386-3.386-3.386a1.268,1.268,0,0,1,1.793-1.793l3.386,3.386,3.586-3.585a1.268,1.268,0,1,1,1.793,1.793l-3.585,3.585,3.585,3.585A1.268,1.268,0,0,1,1319.679,329.878Z"/>
  </g>
</svg>
