<svg xmlns="http://www.w3.org/2000/svg" viewBox="0 0 17.041 19.158">
  <defs>
    <style>
      .cls-1 {
        fill: #525f7f;
      }
    </style>
  </defs>
  <path id="ic_document-edit_gray" class="cls-1" d="M1286.82,460.72l-1.511-1.532a.631.631,0,0,0-.449-.188h0a.631.631,0,0,0-.449.188l-8.808,8.947a.635.635,0,0,0-.138.213l-.98,2.509a.631.631,0,0,0,.821.817l2.483-.986a.633.633,0,0,0,.216-.143l8.816-8.939A.632.632,0,0,0,1286.82,460.72Zm-9.622,8.844-1.011.4.4-1.036,8.268-8.4.624.633Zm6.437-.755v8.506a.873.873,0,0,1-.877.842H1270.8a.842.842,0,0,1-.842-.842V461.278a.811.811,0,0,1,.842-.8h8.746a.842.842,0,0,1,0,1.684h-7.9v14.316h10.309v-7.664a.841.841,0,1,1,1.683,0Z" transform="translate(-1269.961 -459)"/>
</svg>
