<svg xmlns="http://www.w3.org/2000/svg" viewBox="0 0 23 20.019">
  <defs>
    <style>
      .cls-1 {
        fill: #fff;
      }
    </style>
  </defs>
  <path id="menu_calendar" class="cls-1" d="M189.5,598.162v-3.089a1.251,1.251,0,0,1,2.5,0v3.089a1.251,1.251,0,0,1-2.5,0Zm10.75,1.206a1.228,1.228,0,0,0,1.25-1.206v-3.089a1.251,1.251,0,0,0-2.5,0v3.089A1.228,1.228,0,0,0,200.25,599.368ZM207,596.61v16.312a.983.983,0,0,1-1,.965H185a.983.983,0,0,1-1-.965V596.61a1.061,1.061,0,0,1,1-1.054h2.337a.965.965,0,1,1,0,1.929H186v4.1h19v-4.1h-1.337a.965.965,0,1,1,0-1.929H206A1.061,1.061,0,0,1,207,596.61Zm-2,15.347v-8.683H186v8.683Zm-11.078-14.471h3.156a.965.965,0,1,0,0-1.929h-3.156a.965.965,0,1,0,0,1.929Z" transform="translate(-184 -593.868)"/>
</svg>
