<svg xmlns="http://www.w3.org/2000/svg" viewBox="0 0 58 44">
  <defs>
    <style>
      .cls-1 {
        fill: #4f699d;
      }
    </style>
  </defs>
  <path id="photo" class="cls-1" d="M988,473.514A2.518,2.518,0,0,0,985.478,471H932.522A2.518,2.518,0,0,0,930,473.514v38.971A2.518,2.518,0,0,0,932.522,515h52.956A2.518,2.518,0,0,0,988,512.486Zm-5.044,2.514v21.085l-4.241-3.542a2.527,2.527,0,0,0-3.232,0l-6.789,5.632-15.82-13.7a2.528,2.528,0,0,0-3.242-.055l-14.589,11.783v-21.2Zm-47.913,33.943V503.7l16.12-13.02L967.005,504.4a2.526,2.526,0,0,0,3.267.034l6.819-5.656,5.866,4.9v6.3Zm27.781-25.392a4.7,4.7,0,1,1,4.7,4.606A4.657,4.657,0,0,1,962.824,484.579Z" transform="translate(-930 -471)"/>
</svg>
