<svg xmlns="http://www.w3.org/2000/svg" viewBox="0 0 26.634 25.993">
  <defs>
    <style>
      .cls-1 {
        fill: #2fc2ff;
      }
    </style>
  </defs>
  <path id="s_twitter" class="cls-1" d="M1146,371a13,13,0,1,0,13.317,13A13.175,13.175,0,0,0,1146,371Zm5.941,10.022c.006.129.009.259.009.388a8.552,8.552,0,0,1-8.722,8.511,8.826,8.826,0,0,1-4.7-1.344,6.365,6.365,0,0,0,.731.042,6.249,6.249,0,0,0,3.807-1.28,3.06,3.06,0,0,1-2.863-2.078,3.062,3.062,0,0,0,.576.054,3.159,3.159,0,0,0,.808-.1,3.012,3.012,0,0,1-2.458-2.933c0-.013,0-.026,0-.038a3.111,3.111,0,0,0,1.388.374,2.971,2.971,0,0,1-1.363-2.489,2.923,2.923,0,0,1,.415-1.5,8.776,8.776,0,0,0,6.317,3.126,2.924,2.924,0,0,1-.079-.682,3.029,3.029,0,0,1,3.065-2.991,3.1,3.1,0,0,1,2.237.944,6.2,6.2,0,0,0,1.947-.726,3.018,3.018,0,0,1-1.349,1.655,6.225,6.225,0,0,0,1.76-.471A6.12,6.12,0,0,1,1151.94,381.025Z" transform="translate(-1132.682 -371.003)"/>
</svg>
