<svg xmlns="http://www.w3.org/2000/svg" xmlns:xlink="http://www.w3.org/1999/xlink" viewBox="0 0 89.641 89">
  <defs>
    <style>
      .cls-1 {
        fill: #c8232c;
      }

      .cls-2 {
        filter: url(#social_s_pinterests);
      }
    </style>
    <filter id="social_s_pinterests" x="0" y="0" width="89.641" height="89" filterUnits="userSpaceOnUse">
      <feOffset dy="10" input="SourceAlpha"/>
      <feGaussianBlur stdDeviation="10.5" result="blur"/>
      <feFlood flood-color="#c8232c" flood-opacity="0.2"/>
      <feComposite operator="in" in2="blur"/>
      <feComposite in="SourceGraphic"/>
    </filter>
  </defs>
  <g class="cls-2" transform="matrix(1, 0, 0, 1, 0, 0)">
    <path id="social_s_pinterests-2" data-name="social_s_pinterests" class="cls-1" d="M993.339,371a13,13,0,1,0,13.321,13A13.164,13.164,0,0,0,993.339,371Zm1.039,16.515a4.373,4.373,0,0,1-2.145-1c-.419,2.149-.932,4.209-2.451,5.283-.469-3.245.688-5.683,1.226-8.271-.916-1.506.11-4.534,2.042-3.788,2.375.918-2.06,5.6.919,6.179,3.109.609,4.379-5.266,2.45-7.177-2.787-2.76-8.108-.063-7.454,3.887.16.965,1.181,1.258.408,2.592-1.784-.384-2.316-1.758-2.248-3.588a5.927,5.927,0,0,1,5.413-5.382c3.359-.367,6.508,1.2,6.944,4.286C999.974,384.016,997.967,387.786,994.378,387.515Z" transform="translate(-948.52 -349.5)"/>
  </g>
</svg>
