<svg xmlns="http://www.w3.org/2000/svg" xmlns:xlink="http://www.w3.org/1999/xlink" viewBox="0 0 89.635 88.993">
  <defs>
    <style>
      .cls-1 {
        fill: #0077b5;
      }

      .cls-2 {
        filter: url(#social_s_linkedIn);
      }
    </style>
    <filter id="social_s_linkedIn" x="0" y="0" width="89.635" height="88.993" filterUnits="userSpaceOnUse">
      <feOffset dy="10" input="SourceAlpha"/>
      <feGaussianBlur stdDeviation="10.5" result="blur"/>
      <feFlood flood-opacity="0.161"/>
      <feComposite operator="in" in2="blur"/>
      <feComposite in="SourceGraphic"/>
    </filter>
  </defs>
  <g class="cls-2" transform="matrix(1, 0, 0, 1, 0, 0)">
    <path id="social_s_linkedIn-2" data-name="social_s_linkedIn" class="cls-1" d="M1133.361,319a13.321,13.321,0,1,1,13.317,13A13.175,13.175,0,0,1,1133.361,319Zm6.166-6.081v11.959a1.026,1.026,0,0,0,1.05,1h12.112a1.026,1.026,0,0,0,1.051-1V312.918a1.027,1.027,0,0,0-1.051-1h-12.112A1.027,1.027,0,0,0,1139.527,312.918Zm12.049,10.686h-2.146v-3.373c0-.847-.311-1.426-1.087-1.426a1.174,1.174,0,0,0-1.1.767,1.4,1.4,0,0,0-.07.511V323.6h-2.147s.028-5.712,0-6.3h2.147v.892a2.138,2.138,0,0,1,1.934-1.041c1.413,0,2.472.9,2.472,2.837V323.6Zm-4.42-5.389h.013v-.022C1147.166,318.2,1147.161,318.208,1147.156,318.215Zm-5.467,5.386v-6.3h2.15v6.3Zm1.057-7.16a1.23,1.23,0,1,1,.014,0Z" transform="translate(-1101.86 -284.5)"/>
  </g>
</svg>
