<svg xmlns="http://www.w3.org/2000/svg" viewBox="0 0 23 22.19">
  <defs>
    <style>
      .cls-1 {
        fill: #4f699d;
      }
    </style>
  </defs>
  <path id="menu_graph-pie" class="cls-1" d="M192.412,649.775H184.88a.865.865,0,0,1-.88-.849,8.277,8.277,0,0,1,8.412-8.116.865.865,0,0,1,.88.849v7.267A.865.865,0,0,1,192.412,649.775Zm-6.595-1.7h5.715v-5.513A6.553,6.553,0,0,0,185.817,648.077ZM196.271,663c-5.916,0-10.729-4.449-10.729-9.917a.988.988,0,0,1,1.005-.97h9.167v-8.844a.988.988,0,0,1,1.005-.97,10.354,10.354,0,1,1-.449,20.7Zm-8.654-8.947c.525,3.943,4.206,7.007,8.654,7.007a8.421,8.421,0,0,0,1.455-16.756v8.779a.988.988,0,0,1-1.006.97Z" transform="translate(-184 -640.81)"/>
</svg>
